<svg width="177" height="26" viewBox="0 0 177 26" fill="none" xmlns="http://www.w3.org/2000/svg">
<path fill-rule="evenodd" clip-rule="evenodd" d="M13.5508 0L9.37398 8.48092L0 9.85252L6.79161 16.4525L5.16553 25.7625L13.5508 21.3623L21.9365 25.7625L20.31 16.4525L27.1017 9.85252L17.7281 8.48092L13.5508 0Z" fill="#FF7218"/>
<path fill-rule="evenodd" clip-rule="evenodd" d="M50.8008 0L46.624 8.48092L37.25 9.85252L44.0416 16.4525L42.4155 25.7625L50.8008 21.3623L59.1865 25.7625L57.56 16.4525L64.3517 9.85252L54.9781 8.48092L50.8008 0Z" fill="#FF7218"/>
<path fill-rule="evenodd" clip-rule="evenodd" d="M88.0508 0L83.874 8.48092L74.5 9.85252L81.2916 16.4525L79.6655 25.7625L88.0508 21.3623L96.4365 25.7625L94.81 16.4525L101.602 9.85252L92.2281 8.48092L88.0508 0Z" fill="#FF7218"/>
<path fill-rule="evenodd" clip-rule="evenodd" d="M125.301 0L121.124 8.48092L111.75 9.85252L118.542 16.4525L116.916 25.7625L125.301 21.3623L133.687 25.7625L132.06 16.4525L138.852 9.85252L129.478 8.48092L125.301 0Z" fill="#FF7218"/>
<path fill-rule="evenodd" clip-rule="evenodd" d="M162.551 0L158.374 8.48092L149 9.85252L155.792 16.4525L154.166 25.7625L162.551 21.3623L170.937 25.7625L169.31 16.4525L176.102 9.85252L166.728 8.48092L162.551 0Z" fill="#FF7218"/>
</svg>
